o obj1
v 130 178.9980011 0
v 130 178.9980011 3
v 130 31.00300026 0
v 130 31.00300026 3
v 0 178.9980011 3
v 0 178.9980011 0
v 0 31.00300026 0
v 0 31.00300026 3
v 90.03199768 197.74099731 4.9000001
v 41.92599869 197.61599731 4.9000001
v 90.0739975 197.61599731 4.9000001
v 90.0739975 198.38400269 4.9000001
v 90.13200378 198.50100708 4.9000001
v 39.9980011 210 4.9000001
v 90.49900055 197.13200378 4.9000001
v 89.9980011 185 4.9000001
v 90.61599731 197.07400513 4.9000001
v 90.38999939 197.20500183 4.9000001
v 90.29100037 197.29100037 4.9000001
v 90.20500183 197.38999939 4.9000001
v 41.70899963 197.29100037 4.9000001
v 90.74099731 197.03199768 4.9000001
v 90.13200378 197.49899292 4.9000001
v 41.86800003 197.49899292 4.9000001
v 90.20500183 198.61000061 4.9000001
v 91 196.9980011 4.9000001
v 91.1309967 197.0059967 4.9000001
v 91.79499817 197.38999939 4.9000001
v 114.9980011 185 4.9000001
v 91.86799622 197.49899292 4.9000001
v 91.50099945 197.13200378 4.9000001
v 91.61000061 197.20500183 4.9000001
v 47.01200104 112.75099945 0
v 48.64799881 115.1989975 0
v 15.00300026 178.9980011 0
v 50.58800125 117.41200256 0
v 52.80099869 119.35199738 0
v 40.74100113 197.03199768 0
v 55.24900055 120.98799896 0
v 41 196.9980011 0
v 57.88899994 122.29000092 0
v 41.86800003 197.49899292 0
v 41.92599869 197.61599731 0
v 90.0739975 197.61599731 0
v 41.79499817 197.38999939 0
v 90.20500183 197.38999939 0
v 60.67599869 123.23600006 0
v 41.25899887 197.03199768 0
v 63.56299973 123.80999756 0
v 90.29100037 197.29100037 0
v 66.5 124.00299835 0
v 90.38999939 197.20500183 0
v 91.25900269 197.03199768 4.9000001
v 91.86799622 198.50100708 4.9000001
v 114.9980011 210 4.9000001
v 91.79499817 198.61000061 4.9000001
v 91.96800232 197.74099731 4.9000001
v 91.9940033 197.8690033 4.9000001
v 91.9260025 197.61599731 4.9000001
v 90.38999939 198.79499817 4.9000001
v 90.29100037 198.70899963 4.9000001
v 90.49900055 198.86799622 4.9000001
v 89.9980011 210 4.9000001
v 90.74099731 198.96800232 4.9000001
v 90.61599731 198.92599487 4.9000001
v 91 199.00300598 4.9000001
v 90.8690033 198.9940033 4.9000001
v 91.38400269 198.92599487 4.9000001
v 91.50099945 198.86799622 4.9000001
v 91.25900269 198.96800232 4.9000001
v 91.61000061 198.79499817 4.9000001
v 91.70899963 198.70899963 4.9000001
v 91.9260025 198.38400269 4.9000001
v 91.9940033 198.1309967 4.9000001
v 91.96800232 198.25900269 4.9000001
v 91.1309967 198.9940033 4.9000001
v 92.00299835 198 4.9000001
v 91.70899963 197.29100037 4.9000001
v 91.38400269 197.07400513 4.9000001
v 90.8690033 197.0059967 4.9000001
v 40.49900055 197.13200378 4.9000001
v 39.9980011 185 4.9000001
v 40.61600113 197.07400513 4.9000001
v 40.74100113 197.03199768 4.9000001
v 40.38999939 197.20500183 4.9000001
v 15.00300026 185 4.9000001
v 40.13199997 197.49899292 4.9000001
v 40.20500183 197.38999939 4.9000001
v 40.00600052 197.8690033 4.9000001
v 39.9980011 198 4.9000001
v 15.00300026 210 4.9000001
v 40.0320015 198.25900269 4.9000001
v 40.00600052 198.1309967 4.9000001
v 40.07400131 198.38400269 4.9000001
v 40.13199997 198.50100708 4.9000001
v 41.79499817 197.38999939 4.9000001
v 41.61000061 197.20500183 4.9000001
v 41.50099945 197.13200378 4.9000001
v 41.25899887 197.03199768 4.9000001
v 41.38399887 197.07400513 4.9000001
v 91.9940033 198.1309967 0
v 90.49900055 198.86799622 0
v 40.86800003 11.4989996 4.9000001
v 40.92599869 11.61600018 0
v 40.86800003 11.4989996 0
v 91.61000061 198.79499817 0
v 91.70899963 198.70899963 0
v 90.0059967 197.8690033 4.9000001
v 89.9980011 198 0
v 89.9980011 198 4.9000001
v 90.0059967 198.1309967 4.9000001
v 90.03199768 198.25900269 4.9000001
v 90.03199768 198.25900269 0
v 40.9679985 11.74100018 0
v 40.9679985 11.74100018 4.9000001
v 40.99399948 11.86900043 0
v 41.9679985 197.74099731 0
v 41.9679985 197.74099731 4.9000001
v 90.74099731 197.03199768 0
v 90.20500183 198.61000061 0
v 90.29100037 198.70899963 0
v 15.00300026 185 3
v 15.00300026 25 3
v 15.00300026 25 4.9000001
v 114.9980011 25 3
v 114.9980011 25 4.9000001
v 40.70899963 11.29100037 0
v 40.61000061 11.20499992 0
v 40.61000061 11.20499992 4.9000001
v 40.50099945 11.13199997 0
v 40.50099945 11.13199997 4.9000001
v 91.86799622 198.50100708 0
v 91.9260025 198.38400269 0
v 40.99399948 12.13099957 4.9000001
v 40.9679985 12.25899982 4.9000001
v 40.99399948 12.13099957 0
v 40.99399948 11.86900043 4.9000001
v 41.00299835 12 0
v 40.13100052 12.99400043 4.9000001
v 40 13.00300026 0
v 40.13100052 12.99400043 0
v 40.25899887 12.96800041 0
v 40.86800003 12.5010004 4.9000001
v 40.86800003 12.5010004 0
v 40.92599869 12.38399982 0
v 40.79499817 11.39000034 0
v 40.70899963 11.29100037 4.9000001
v 40.79499817 11.39000034 4.9000001
v 40.38399887 11.07400036 4.9000001
v 40.38399887 11.07400036 0
v 40.25899887 11.03199959 0
v 40.9679985 12.25899982 0
v 40.25899887 12.96800041 4.9000001
v 40.38399887 12.92599964 0
v 40.38399887 12.92599964 4.9000001
v 40.50099945 12.86800003 0
v 40.50099945 12.86800003 4.9000001
v 40.61000061 12.79500008 0
v 40.61000061 12.79500008 4.9000001
v 40.70899963 12.70899963 0
v 40.70899963 12.70899963 4.9000001
v 40.79499817 12.60999966 0
v 39.00600052 12.13099957 4.9000001
v 38.9980011 12 0
v 39.00600052 12.13099957 0
v 40 13.00300026 4.9000001
v 39.86899948 12.99400043 0
v 39.86899948 11.00599957 4.9000001
v 40 10.99800014 0
v 39.86899948 11.00599957 0
v 39.74100113 11.03199959 0
v 39.74100113 11.03199959 4.9000001
v 39.61600113 11.07400036 4.9000001
v 39.61600113 11.07400036 0
v 39.49900055 11.13199997 0
v 40.92599869 11.61600018 4.9000001
v 39.29100037 11.29100037 4.9000001
v 39.29100037 11.29100037 0
v 39.20500183 11.39000034 0
v 39.0320015 11.74100018 0
v 39.0320015 11.74100018 4.9000001
v 39.07400131 11.61600018 0
v 39.00600052 11.86900043 4.9000001
v 39.00600052 11.86900043 0
v 40.25899887 11.03199959 4.9000001
v 40.13100052 11.00599957 4.9000001
v 40.13100052 11.00599957 0
v 40 10.99800014 4.9000001
v 39.0320015 12.25899982 0
v 39.13199997 12.5010004 4.9000001
v 39.07400131 12.38399982 0
v 39.13199997 12.5010004 0
v 39.07400131 12.38399982 4.9000001
v 39.0320015 12.25899982 4.9000001
v 39.20500183 12.60999966 0
v 39.29100037 12.70899963 4.9000001
v 39.29100037 12.70899963 0
v 39.38999939 12.79500008 0
v 39.49900055 12.86800003 4.9000001
v 39.49900055 12.86800003 0
v 39.61600113 12.92599964 4.9000001
v 39.61600113 12.92599964 0
v 39.74100113 12.96800041 0
v 39.74100113 12.96800041 4.9000001
v 39.86899948 12.99400043 4.9000001
v 15.00300026 178.9980011 3
v 15.00300026 31.00300026 0
v 15.00300026 31.00300026 3
v 15.00300026 210 0
v 15.00300026 0 0
v 69.43699646 123.80999756 0
v 90.49900055 197.13200378 0
v 90.13200378 197.49899292 0
v 90.03199768 197.74099731 0
v 90.79499817 12.60999966 0
v 90.79499817 12.60999966 4.9000001
v 90.70899963 12.70899963 4.9000001
v 90.86799622 12.5010004 0
v 90.86799622 12.5010004 4.9000001
v 90.8690033 197.0059967 0
v 91 196.9980011 0
v 75.11100006 122.29000092 0
v 77.75099945 120.98799896 0
v 90.9260025 12.38399982 0
v 41.99399948 197.8690033 0
v 90.0059967 197.8690033 0
v 42.00299835 198 0
v 40.92599869 12.38399982 4.9000001
v 114.9980011 178.9980011 0
v 84.35199738 115.1989975 0
v 87.29000092 110.11100006 0
v 85.98799896 112.75099945 0
v 82.41200256 117.41200256 0
v 80.1989975 119.35199738 0
v 91.38400269 197.07400513 0
v 91.25900269 197.03199768 0
v 91.1309967 197.0059967 0
v 39.38999939 11.20499992 4.9000001
v 39.38999939 11.20499992 0
v 90.0059967 198.1309967 0
v 38.9980011 12 4.9000001
v 91.70899963 197.29100037 0
v 91.79499817 197.38999939 0
v 91.61000061 197.20500183 0
v 91.50099945 197.13200378 0
v 91.96800232 198.25900269 0
v 114.9980011 210 0
v 89.9980011 210 0
v 90.38999939 198.79499817 0
v 90.61599731 198.92599487 0
v 90.74099731 198.96800232 0
v 90.8690033 198.9940033 0
v 91 199.00300598 0
v 91.1309967 198.9940033 0
v 41.00299835 12 4.9000001
v 91.38400269 198.92599487 0
v 91.50099945 198.86799622 0
v 91.79499817 198.61000061 0
v 91.25900269 198.96800232 0
v 91.9260025 197.61599731 0
v 91.96800232 197.74099731 0
v 91.86799622 197.49899292 0
v 91.9940033 197.8690033 0
v 92.00299835 198 0
v 39.20500183 12.60999966 4.9000001
v 39.38999939 12.79500008 4.9000001
v 89.00299835 101.5 0
v 88.80999756 104.43699646 0
v 88.23600006 107.3239975 0
v 41.99399948 198.1309967 0
v 72.3239975 123.23600006 0
v 90.61599731 197.07400513 0
v 39.9980011 0 0
v 89.74099731 11.03199959 0
v 89.8690033 11.00599957 0
v 90 10.99800014 0
v 114.9980011 0 0
v 89.61599731 11.07400036 0
v 89.49900055 11.13199997 0
v 89.38999939 11.20499992 0
v 89.29100037 11.29100037 0
v 89.20500183 11.39000034 0
v 89.13200378 11.4989996 0
v 39.49900055 11.13199997 4.9000001
v 89.03199768 11.74100018 0
v 89.0739975 11.61600018 0
v 40.79499817 12.60999966 4.9000001
v 89.0059967 11.86900043 0
v 15.00300026 0 4.9000001
v 39.20500183 11.39000034 4.9000001
v 39.13199997 11.4989996 4.9000001
v 39.13199997 11.4989996 0
v 90.70899963 11.29100037 0
v 90.61000061 11.20499992 0
v 90.38400269 11.07400036 0
v 90.50099945 11.13199997 0
v 39.07400131 11.61600018 4.9000001
v 90.25900269 11.03199959 0
v 52.80099869 83.64800262 3
v 55.24900055 82.01200104 3
v 90.1309967 11.00599957 0
v 47.01200104 90.24900055 3
v 48.64799881 87.8010025 3
v 90.96800232 12.25899982 0
v 114.9980011 31.00300026 0
v 45.70999908 92.88899994 3
v 44.76399994 95.6760025 3
v 90.86799622 11.4989996 0
v 90.9260025 11.61600018 0
v 90.79499817 11.39000034 0
v 87.29000092 92.88899994 3
v 85.98799896 90.24900055 3
v 82.41200256 85.58799744 3
v 114.9980011 31.00300026 3
v 84.35199738 87.8010025 3
v 89.20500183 12.60999966 0
v 63.56299973 79.19000244 0
v 89.29100037 12.70899963 0
v 72.3239975 79.76399994 3
v 69.43699646 79.19000244 3
v 66.5 78.9980011 0
v 89.38999939 12.79500008 0
v 66.5 78.9980011 3
v 69.43699646 79.19000244 0
v 89.49900055 12.86800003 0
v 89.74099731 12.96800041 0
v 89.61599731 12.92599964 0
v 44.18999863 98.56300354 3
v 43.9980011 101.5 3
v 89.8690033 12.99400043 0
v 72.3239975 79.76399994 0
v 47.01200104 112.75099945 3
v 48.64799881 115.1989975 3
v 90.38400269 12.92599964 0
v 90.50099945 12.86800003 0
v 50.58800125 117.41200256 3
v 45.70999908 110.11100006 3
v 52.80099869 119.35199738 3
v 90.70899963 12.70899963 0
v 90.61000061 12.79500008 0
v 55.24900055 120.98799896 3
v 57.88899994 122.29000092 3
v 60.67599869 123.23600006 3
v 63.56299973 123.80999756 3
v 66.5 124.00299835 3
v 90.25900269 12.96800041 0
v 90.1309967 12.99400043 0
v 75.11100006 80.70999908 0
v 85.98799896 90.24900055 0
v 114.9980011 178.9980011 3
v 90.96800232 11.74100018 0
v 90.9940033 11.86900043 0
v 91.00299835 12 0
v 90.9940033 12.13099957 0
v 72.3239975 123.23600006 3
v 69.43699646 123.80999756 3
v 75.11100006 122.29000092 3
v 82.41200256 117.41200256 3
v 80.1989975 119.35199738 3
v 77.75099945 120.98799896 3
v 60.67599869 79.76399994 0
v 89.13200378 12.5010004 0
v 90 13.00300026 0
v 84.35199738 115.1989975 3
v 85.98799896 112.75099945 3
v 87.29000092 110.11100006 3
v 88.23600006 107.3239975 3
v 88.80999756 104.43699646 3
v 89.00299835 101.5 3
v 88.23600006 95.6760025 3
v 40.38999939 197.20500183 0
v 40.49900055 197.13200378 0
v 40.20500183 197.38999939 0
v 40.29100037 197.29100037 0
v 40.13199997 197.49899292 0
v 40.07400131 197.61599731 0
v 114.9980011 185 3
v 40.0320015 197.74099731 0
v 40.00600052 197.8690033 0
v 88.80999756 98.56300354 3
v 80.1989975 83.64800262 3
v 77.75099945 82.01200104 3
v 40.00600052 198.1309967 0
v 39.9980011 198 0
v 75.11100006 80.70999908 3
v 40.0320015 198.25900269 0
v 40.07400131 198.38400269 0
v 40.13199997 198.50100708 0
v 40.20500183 198.61000061 0
v 63.56299973 79.19000244 3
v 60.67599869 79.76399994 3
v 57.88899994 80.70999908 3
v 50.58800125 85.58799744 3
v 90.0739975 198.38400269 0
v 44.18999863 104.43699646 3
v 44.76399994 107.3239975 3
v 41.70899963 197.29100037 0
v 41.61000061 197.20500183 0
v 41.50099945 197.13200378 0
v 41.38399887 197.07400513 0
v 41.13100052 197.0059967 0
v 41.86800003 198.50100708 0
v 41.79499817 198.61000061 0
v 41.70899963 198.70899963 0
v 41.9679985 198.25900269 0
v 41.92599869 198.38400269 0
v 57.88899994 80.70999908 0
v 90.13200378 198.50100708 0
v 88.80999756 98.56300354 0
v 88.23600006 95.6760025 0
v 40.29100037 198.70899963 0
v 87.29000092 92.88899994 0
v 40.38999939 198.79499817 0
v 40.49900055 198.86799622 0
v 38.9980011 210 0
v 40.61600113 198.92599487 0
v 84.35199738 87.8010025 0
v 82.41200256 85.58799744 0
v 40.74100113 198.96800232 0
v 40.86899948 198.9940033 0
v 80.1989975 83.64800262 0
v 77.75099945 82.01200104 0
v 41 199.00300598 0
v 41.13100052 198.9940033 0
v 44.18999863 104.43699646 0
v 44.76399994 107.3239975 0
v 43.9980011 101.5 0
v 44.18999863 98.56300354 0
v 41.61000061 198.79499817 0
v 41.50099945 198.86799622 0
v 41.38399887 198.92599487 0
v 41.25899887 198.96800232 0
v 45.70999908 110.11100006 0
v 89.0059967 12.13099957 0
v 88.9980011 12 0
v 41.9679985 198.25900269 4.9000001
v 41.99399948 198.1309967 4.9000001
v 42.00299835 198 4.9000001
v 41.99399948 197.8690033 4.9000001
v 89.0739975 12.38399982 0
v 40.29100037 198.70899963 4.9000001
v 40.20500183 198.61000061 4.9000001
v 40.49900055 198.86799622 4.9000001
v 40.38999939 198.79499817 4.9000001
v 40.61600113 198.92599487 4.9000001
v 40.74100113 198.96800232 4.9000001
v 89.03199768 12.25899982 0
v 40.86899948 198.9940033 4.9000001
v 41 199.00300598 4.9000001
v 47.01200104 90.24900055 0
v 48.64799881 87.8010025 0
v 41.61000061 198.79499817 4.9000001
v 41.50099945 198.86799622 4.9000001
v 41.92599869 198.38400269 4.9000001
v 41.86800003 198.50100708 4.9000001
v 41.13100052 198.9940033 4.9000001
v 41.25899887 198.96800232 4.9000001
v 41.38399887 198.92599487 4.9000001
v 41.70899963 198.70899963 4.9000001
v 41.79499817 198.61000061 4.9000001
v 41.13100052 197.0059967 4.9000001
v 40.61600113 197.07400513 0
v 50.58800125 85.58799744 0
v 52.80099869 83.64800262 0
v 40.86899948 197.0059967 0
v 45.70999908 92.88899994 0
v 44.76399994 95.6760025 0
v 41 196.9980011 4.9000001
v 40.86899948 197.0059967 4.9000001
v 40.29100037 197.29100037 4.9000001
v 40.07400131 197.61599731 4.9000001
v 40.0320015 197.74099731 4.9000001
v 55.24900055 82.01200104 0
v 89.74099731 11.03199959 4.9000001
v 88.9980011 0 4.9000001
v 89.8690033 11.00599957 4.9000001
v 89.38999939 11.20499992 4.9000001
v 89.49900055 11.13199997 4.9000001
v 89.61599731 11.07400036 4.9000001
v 89.20500183 11.39000034 4.9000001
v 89.13200378 11.4989996 4.9000001
v 89.29100037 11.29100037 4.9000001
v 89.0739975 11.61600018 4.9000001
v 89.03199768 11.74100018 4.9000001
v 89.20500183 12.60999966 4.9000001
v 91.00299835 12 4.9000001
v 90.9940033 12.13099957 4.9000001
v 90.61000061 11.20499992 4.9000001
v 114.9980011 0 4.9000001
v 90.70899963 11.29100037 4.9000001
v 90.9260025 11.61600018 4.9000001
v 90.86799622 11.4989996 4.9000001
v 90.50099945 11.13199997 4.9000001
v 90.79499817 11.39000034 4.9000001
v 90.38400269 11.07400036 4.9000001
v 90.25900269 11.03199959 4.9000001
v 90.1309967 11.00599957 4.9000001
v 90 10.99800014 4.9000001
v 89.38999939 12.79500008 4.9000001
v 89.61599731 12.92599964 4.9000001
v 89.74099731 12.96800041 4.9000001
v 89.8690033 12.99400043 4.9000001
v 90 13.00300026 4.9000001
v 38.9980011 0 4.9000001
v 90.9260025 12.38399982 4.9000001
v 90.1309967 12.99400043 4.9000001
v 90.25900269 12.96800041 4.9000001
v 90.50099945 12.86800003 4.9000001
v 90.38400269 12.92599964 4.9000001
v 90.61000061 12.79500008 4.9000001
v 90.96800232 12.25899982 4.9000001
v 90.9940033 11.86900043 4.9000001
v 90.96800232 11.74100018 4.9000001
v 89.0739975 12.38399982 4.9000001
v 89.03199768 12.25899982 4.9000001
v 89.13200378 12.5010004 4.9000001
v 88.9980011 12 4.9000001
v 89.0059967 12.13099957 4.9000001
v 89.0059967 11.86900043 4.9000001
v 89.29100037 12.70899963 4.9000001
v 89.49900055 12.86800003 4.9000001
vn 1 0 0
vn -1 0 0
vn 0 0 1
vn 0 0 -1
vn 0.83088 0.55646 0
vn -0.99765 -0.06854 0
vn 0.55646 -0.83088 0
vn -0.89595 0.44415 0
vn -0.6558 -0.75493 0
vn 0.99814 0.06096 0
vn 0.99814 -0.06096 0
vn 0.94792 -0.3185 0
vn -0.97999 0.19906 0
vn -0.94792 0.3185 0
vn 0.19906 0.97999 0
vn 0.3185 0.94792 0
vn 0.83088 -0.55646 0
vn 0.75493 -0.6558 0
vn 0 1 0
vn -0.6558 0.75493 0
vn -0.55646 0.83088 0
vn -0.83088 -0.55646 0
vn -0.89595 -0.44415 0
vn -0.94792 -0.3185 0
vn -0.97999 -0.19906 0
vn -0.99765 0.06854 0
vn -0.06854 -0.99765 0
vn -0.19906 -0.97999 0
vn -0.83088 0.55646 0
vn -0.75493 0.6558 0
vn -0.44415 0.89595 0
vn -0.3185 0.94792 0
vn -0.3185 -0.94792 0
vn -0.44415 -0.89595 0
vn -0.55646 -0.83088 0
vn 0.06854 -0.99765 0
vn 0.06096 0.99814 0
vn 0.44415 0.89595 0
vn 0.75493 0.6558 0
vn 0.94792 0.3185 0
vn 0.97999 0.19906 0
vn -0.19906 0.97999 0
vn -0.06096 0.99814 0
vn 0.97999 -0.19906 0
vn 0.89595 -0.44415 0
vn 0.6558 -0.75493 0
vn 0.44415 -0.89595 0
vn 0.3185 -0.94792 0
vn 0.19906 -0.97999 0
vn 0 -1 0
vn -0.75493 -0.6558 0
vn 0.6558 0.75493 0
vn 0.55646 0.83088 0
vn 0.89595 0.44415 0
vn 0.06523 0.99787 0
vn 0.19501 0.9808 0
vn 0.32142 0.94694 0
vn 0.44231 0.89686 0
vn 0.55564 0.83142 0
vn 0.6592 0.75197 0
vn 0.75197 0.6592 0
vn 0.83142 0.55564 0
vn 0.89686 0.44231 0
vn 0.94694 0.32142 0
vn -0.9808 0.19501 0
vn -0.94694 0.32142 0
vn -0.89686 0.44231 0
vn -0.83142 0.55564 0
vn -0.75197 0.6592 0
vn -0.6592 0.75197 0
vn -0.55564 0.83142 0
vn -0.44231 0.89686 0
vn -0.32142 0.94694 0
vn -0.19501 0.9808 0
vn -0.06523 0.99787 0
vn 0.9808 0.19501 0
vn 0.99787 0.06523 0
vn 0.99787 -0.06523 0
vn 0.9808 -0.19501 0
vn 0.94694 -0.32142 0
vn 0.89686 -0.44231 0
vn 0.83142 -0.55564 0
vn 0.75197 -0.6592 0
vn 0.6592 -0.75197 0
vn 0.55564 -0.83142 0
vn 0.44231 -0.89686 0
vn 0.32142 -0.94694 0
vn 0.19501 -0.9808 0
vn 0.06557 -0.99785 0
vn -0.06557 -0.99785 0
vn -0.19501 -0.9808 0
vn -0.32142 -0.94694 0
vn -0.44231 -0.89686 0
vn -0.55564 -0.83142 0
vn -0.6592 -0.75197 0
vn -0.75197 -0.6592 0
vn -0.83142 -0.55564 0
vn -0.89686 -0.44231 0
vn -0.94694 -0.32142 0
vn -0.9808 -0.19501 0
vn -0.99785 -0.06557 0
vn -0.99785 0.06557 0
f 1//1 2//1 3//1
f 4//1 3//1 2//1
f 5//2 6//2 7//2
f 5//2 7//2 8//2
f 9//3 10//3 11//3
f 12//3 13//3 14//3
f 15//3 16//3 17//3
f 18//3 16//3 15//3
f 19//3 16//3 18//3
f 20//3 21//3 19//3
f 22//3 17//3 16//3
f 23//3 24//3 20//3
f 11//3 24//3 23//3
f 25//3 14//3 13//3
f 26//3 16//3 27//3
f 28//3 29//3 30//3
f 31//3 29//3 32//3
f 33//4 6//4 34//4
f 34//4 35//4 36//4
f 36//4 35//4 37//4
f 37//4 38//4 39//4
f 39//4 40//4 41//4
f 42//4 43//4 44//4
f 45//4 42//4 46//4
f 47//4 48//4 49//4
f 46//4 50//4 49//4
f 51//4 49//4 52//4
f 27//3 16//3 53//3
f 54//3 55//3 56//3
f 57//3 29//3 58//3
f 59//3 29//3 57//3
f 60//3 14//3 61//3
f 25//3 61//3 14//3
f 62//3 63//3 60//3
f 64//3 63//3 65//3
f 66//3 63//3 67//3
f 68//3 69//3 63//3
f 55//3 63//3 69//3
f 70//3 68//3 63//3
f 71//3 55//3 69//3
f 72//3 55//3 71//3
f 72//3 56//3 55//3
f 54//3 73//3 55//3
f 74//3 55//3 75//3
f 76//3 70//3 63//3
f 66//3 76//3 63//3
f 73//3 75//3 55//3
f 55//3 74//3 77//3
f 58//3 29//3 77//3
f 30//3 29//3 59//3
f 78//3 29//3 28//3
f 32//3 29//3 78//3
f 79//3 16//3 31//3
f 53//3 16//3 79//3
f 55//3 77//3 29//3
f 80//3 16//3 26//3
f 22//3 16//3 80//3
f 19//3 21//3 16//3
f 29//3 31//3 16//3
f 81//3 82//3 83//3
f 84//3 83//3 82//3
f 85//3 86//3 81//3
f 87//3 86//3 88//3
f 89//3 90//3 86//3
f 91//3 86//3 90//3
f 92//3 91//3 93//3
f 90//3 93//3 91//3
f 94//3 91//3 92//3
f 95//3 91//3 94//3
f 96//3 20//3 24//3
f 21//3 20//3 96//3
f 97//3 16//3 21//3
f 98//3 82//3 97//3
f 99//3 82//3 100//3
f 20//5 46//5 23//5
f 101//6 77//6 74//6
f 102//7 62//7 60//7
f 103//8 104//8 105//8
f 106//9 107//9 71//9
f 108//10 109//10 110//10
f 109//11 111//11 110//11
f 12//12 112//12 113//12
f 114//13 115//13 116//13
f 117//14 43//14 118//14
f 80//15 119//15 22//15
f 22//16 119//16 17//16
f 120//17 25//17 13//17
f 120//18 121//18 25//18
f 86//2 91//2 122//2
f 123//19 124//19 125//19
f 126//19 125//19 124//19
f 127//20 128//20 129//20
f 130//21 131//21 128//21
f 132//22 54//22 56//22
f 133//23 73//23 132//23
f 54//23 132//23 73//23
f 133//24 75//24 73//24
f 134//25 135//25 136//25
f 137//26 138//26 116//26
f 139//27 140//27 141//27
f 142//28 139//28 141//28
f 143//23 144//23 145//23
f 103//29 105//29 146//29
f 147//30 148//30 127//30
f 127//20 129//20 147//20
f 129//21 128//21 131//21
f 149//31 131//31 150//31
f 130//31 150//31 131//31
f 149//32 150//32 151//32
f 152//25 136//25 135//25
f 134//6 136//6 138//6
f 137//13 116//13 115//13
f 142//28 153//28 139//28
f 154//33 155//33 142//33
f 153//33 142//33 155//33
f 154//34 156//34 155//34
f 157//34 155//34 156//34
f 156//35 158//35 157//35
f 159//35 157//35 158//35
f 160//9 161//9 158//9
f 144//22 143//22 162//22
f 163//11 164//11 165//11
f 140//36 166//36 167//36
f 168//37 169//37 170//37
f 171//15 172//15 170//15
f 173//38 174//38 175//38
f 104//8 103//8 176//8
f 177//39 178//39 179//39
f 180//40 181//40 182//40
f 183//41 181//41 184//41
f 151//32 185//32 149//32
f 183//10 184//10 164//10
f 186//42 185//42 187//42
f 151//42 187//42 185//42
f 188//43 186//43 169//43
f 187//43 169//43 186//43
f 163//44 165//44 189//44
f 115//14 114//14 104//14
f 190//45 191//45 192//45
f 193//12 194//12 191//12
f 190//17 192//17 195//17
f 196//18 195//18 197//18
f 196//46 197//46 198//46
f 199//7 198//7 200//7
f 199//47 200//47 201//47
f 202//47 201//47 200//47
f 202//48 203//48 201//48
f 204//48 201//48 203//48
f 167//49 204//49 203//49
f 167//49 205//49 204//49
f 206//19 35//19 6//19
f 206//19 6//19 5//19
f 8//50 7//50 207//50
f 8//50 207//50 208//50
f 35//2 206//2 122//2
f 91//2 209//2 122//2
f 35//2 122//2 209//2
f 208//2 207//2 123//2
f 210//2 123//2 207//2
f 140//27 139//27 166//27
f 211//4 51//4 212//4
f 52//4 212//4 51//4
f 50//4 52//4 49//4
f 213//4 46//4 42//4
f 44//4 213//4 42//4
f 43//4 117//4 214//4
f 215//51 216//51 217//51
f 218//22 219//22 215//22
f 216//22 215//22 219//22
f 220//4 221//4 222//4
f 223//4 222//4 221//4
f 218//23 224//23 219//23
f 159//9 158//9 161//9
f 117//4 225//4 226//4
f 46//4 49//4 45//4
f 225//4 227//4 226//4
f 228//23 143//23 145//23
f 229//4 1//4 230//4
f 231//4 232//4 1//4
f 230//4 233//4 229//4
f 233//4 234//4 229//4
f 235//4 229//4 234//4
f 234//4 223//4 236//4
f 236//4 235//4 234//4
f 221//4 237//4 223//4
f 237//4 236//4 223//4
f 238//52 239//52 177//52
f 109//4 226//4 227//4
f 240//4 109//4 227//4
f 183//10 164//10 241//10
f 242//4 243//4 229//4
f 163//11 241//11 164//11
f 244//4 242//4 229//4
f 189//44 194//44 163//44
f 245//4 244//4 229//4
f 189//12 191//12 194//12
f 169//37 168//37 188//37
f 145//24 152//24 135//24
f 246//4 133//4 247//4
f 132//4 247//4 133//4
f 101//4 246//4 247//4
f 103//29 146//29 148//29
f 146//30 127//30 148//30
f 121//4 248//4 249//4
f 102//4 248//4 250//4
f 251//4 248//4 252//4
f 253//4 248//4 254//4
f 134//6 138//6 255//6
f 256//4 248//4 257//4
f 255//26 138//26 137//26
f 104//14 176//14 115//14
f 106//4 247//4 107//4
f 107//4 247//4 258//4
f 106//4 257//4 247//4
f 259//4 248//4 256//4
f 254//4 248//4 259//4
f 252//4 248//4 253//4
f 247//4 257//4 248//4
f 190//45 193//45 191//45
f 235//4 245//4 229//4
f 260//4 261//4 229//4
f 243//4 262//4 229//4
f 262//4 260//4 229//4
f 261//4 263//4 229//4
f 247//4 229//4 263//4
f 263//4 264//4 247//4
f 264//4 101//4 247//4
f 132//4 258//4 247//4
f 195//17 265//17 190//17
f 196//18 265//18 195//18
f 198//46 266//46 196//46
f 1//4 3//4 267//4
f 232//4 230//4 1//4
f 268//4 269//4 1//4
f 269//4 231//4 1//4
f 267//4 268//4 1//4
f 199//7 266//7 198//7
f 251//4 250//4 248//4
f 102//4 249//4 248//4
f 227//4 270//4 240//4
f 222//4 271//4 220//4
f 119//4 220//4 271//4
f 271//4 211//4 119//4
f 272//4 119//4 211//4
f 212//4 272//4 211//4
f 273//4 274//4 275//4
f 276//4 277//4 275//4
f 205//36 167//36 166//36
f 278//4 274//4 273//4
f 279//4 278//4 273//4
f 279//4 273//4 280//4
f 280//4 273//4 281//4
f 282//4 281//4 273//4
f 168//15 170//15 172//15
f 283//4 282//4 273//4
f 171//16 174//16 172//16
f 173//16 172//16 174//16
f 284//38 173//38 175//38
f 285//4 286//4 273//4
f 286//4 283//4 273//4
f 160//51 162//51 161//51
f 161//51 162//51 287//51
f 288//4 285//4 273//4
f 284//53 175//53 238//53
f 239//53 238//53 175//53
f 287//22 162//22 143//22
f 128//4 127//4 273//4
f 228//24 145//24 135//24
f 239//52 178//52 177//52
f 289//2 124//2 123//2
f 289//2 123//2 210//2
f 290//39 177//39 179//39
f 290//5 179//5 291//5
f 292//5 291//5 179//5
f 293//4 277//4 294//4
f 295//4 296//4 277//4
f 296//4 294//4 277//4
f 292//54 182//54 291//54
f 297//54 291//54 182//54
f 298//4 295//4 277//4
f 299//3 208//3 300//3
f 297//40 182//40 181//40
f 301//4 298//4 277//4
f 180//41 184//41 181//41
f 302//3 208//3 303//3
f 304//4 224//4 305//4
f 306//3 8//3 302//3
f 307//3 8//3 306//3
f 308//4 309//4 277//4
f 310//4 308//4 277//4
f 311//3 312//3 4//3
f 293//4 310//4 277//4
f 127//4 146//4 288//4
f 313//3 314//3 315//3
f 314//3 4//3 312//3
f 316//4 317//4 318//4
f 319//3 320//3 314//3
f 318//4 321//4 322//4
f 323//3 208//3 314//3
f 321//4 324//4 325//4
f 326//4 327//4 324//4
f 328//3 8//3 307//3
f 329//3 8//3 328//3
f 330//4 326//4 331//4
f 332//3 333//3 5//3
f 334//4 305//4 335//4
f 336//3 206//3 333//3
f 337//3 332//3 5//3
f 338//3 206//3 336//3
f 339//4 340//4 305//4
f 341//3 206//3 338//3
f 206//3 5//3 333//3
f 342//3 206//3 341//3
f 343//3 206//3 342//3
f 218//4 215//4 305//4
f 344//3 345//3 206//3
f 215//4 339//4 305//4
f 346//4 347//4 348//4
f 331//4 348//4 330//4
f 324//4 331//4 326//4
f 340//4 335//4 305//4
f 305//4 349//4 3//4
f 345//3 350//3 206//3
f 309//4 351//4 277//4
f 352//4 353//4 277//4
f 352//4 277//4 351//4
f 353//4 354//4 277//4
f 304//4 305//4 354//4
f 277//4 354//4 305//4
f 224//4 218//4 305//4
f 355//3 350//3 356//3
f 122//3 206//3 350//3
f 301//4 277//4 276//4
f 273//4 275//4 277//4
f 355//3 357//3 350//3
f 358//3 350//3 359//3
f 357//3 360//3 350//3
f 327//4 325//4 324//4
f 322//4 321//4 325//4
f 146//4 105//4 288//4
f 288//4 273//4 127//4
f 130//4 128//4 273//4
f 317//4 316//4 361//4
f 362//4 361//4 316//4
f 363//4 330//4 348//4
f 364//3 350//3 358//3
f 365//3 2//3 364//3
f 360//3 359//3 350//3
f 366//3 2//3 365//3
f 367//3 2//3 366//3
f 368//3 2//3 367//3
f 369//3 2//3 368//3
f 370//3 311//3 4//3
f 371//4 372//4 35//4
f 373//4 374//4 35//4
f 356//3 350//3 345//3
f 343//3 344//3 206//3
f 375//4 373//4 35//4
f 376//4 375//4 35//4
f 377//3 122//3 350//3
f 378//4 376//4 35//4
f 379//4 378//4 35//4
f 350//3 364//3 2//3
f 380//3 370//3 4//3
f 2//3 369//3 4//3
f 369//3 380//3 4//3
f 314//3 312//3 315//3
f 313//3 381//3 314//3
f 314//3 381//3 382//3
f 383//4 384//4 209//4
f 384//4 379//4 209//4
f 382//3 385//3 314//3
f 385//3 319//3 314//3
f 386//4 383//4 209//4
f 387//4 209//4 388//4
f 125//3 314//3 123//3
f 388//4 209//4 389//4
f 320//3 323//3 314//3
f 390//3 208//3 323//3
f 391//3 208//3 390//3
f 392//3 208//3 391//3
f 300//3 208//3 392//3
f 393//3 208//3 299//3
f 303//3 208//3 393//3
f 123//3 314//3 208//3
f 394//4 113//4 270//4
f 395//3 5//3 329//3
f 396//3 5//3 395//3
f 396//3 337//3 5//3
f 113//4 240//4 270//4
f 208//3 302//3 8//3
f 8//3 329//3 5//3
f 214//4 44//4 43//4
f 45//4 49//4 397//4
f 397//4 49//4 398//4
f 398//4 49//4 399//4
f 399//4 49//4 400//4
f 400//4 49//4 48//4
f 321//4 318//4 317//4
f 48//4 47//4 401//4
f 402//4 403//4 248//4
f 403//4 404//4 248//4
f 405//4 406//4 248//4
f 406//4 402//4 248//4
f 362//4 162//4 361//4
f 162//4 160//4 361//4
f 158//4 156//4 361//4
f 160//4 158//4 361//4
f 407//4 361//4 142//4
f 408//4 394//4 270//4
f 120//4 408//4 270//4
f 267//4 3//4 409//4
f 409//4 3//4 410//4
f 389//4 209//4 411//4
f 410//4 3//4 412//4
f 411//4 209//4 413//4
f 412//4 3//4 349//4
f 414//4 415//4 416//4
f 417//4 349//4 305//4
f 418//4 417//4 305//4
f 419//4 415//4 420//4
f 421//4 418//4 305//4
f 422//4 421//4 305//4
f 348//4 422//4 305//4
f 423//4 415//4 424//4
f 305//4 334//4 348//4
f 334//4 346//4 348//4
f 347//4 363//4 348//4
f 425//4 6//4 426//4
f 427//4 428//4 7//4
f 429//4 430//4 248//4
f 404//4 429//4 248//4
f 430//4 431//4 415//4
f 415//4 248//4 430//4
f 415//4 431//4 432//4
f 415//4 432//4 424//4
f 420//4 415//4 423//4
f 426//4 6//4 433//4
f 433//4 6//4 33//4
f 248//4 121//4 270//4
f 121//4 120//4 270//4
f 270//4 405//4 248//4
f 434//4 435//4 138//4
f 436//3 437//3 111//3
f 435//4 288//4 138//4
f 437//3 438//3 111//3
f 116//4 138//4 288//4
f 110//3 111//3 438//3
f 108//3 110//3 438//3
f 114//4 116//4 288//4
f 118//3 108//3 439//3
f 150//4 130//4 273//4
f 151//4 150//4 273//4
f 187//4 151//4 273//4
f 10//3 9//3 118//3
f 145//4 144//4 440//4
f 441//3 91//3 442//3
f 152//4 145//4 440//4
f 154//4 142//4 361//4
f 443//3 14//3 444//3
f 445//3 14//3 443//3
f 95//3 442//3 91//3
f 446//3 14//3 445//3
f 441//3 444//3 91//3
f 138//4 136//4 434//4
f 447//4 434//4 136//4
f 104//4 114//4 288//4
f 448//3 14//3 446//3
f 449//3 14//3 448//3
f 450//4 451//4 207//4
f 452//3 14//3 453//3
f 141//4 140//4 407//4
f 142//4 141//4 407//4
f 454//3 436//3 111//3
f 455//3 454//3 111//3
f 156//4 154//4 361//4
f 456//3 14//3 449//3
f 457//3 14//3 456//3
f 14//3 457//3 458//3
f 458//3 453//3 14//3
f 452//3 459//3 14//3
f 91//3 444//3 14//3
f 144//4 162//4 362//4
f 362//4 440//4 144//4
f 460//3 455//3 111//3
f 438//3 439//3 108//3
f 24//3 11//3 10//3
f 108//3 118//3 9//3
f 100//3 82//3 98//3
f 461//3 82//3 99//3
f 459//3 460//3 111//3
f 14//3 459//3 111//3
f 14//3 111//3 112//3
f 112//3 12//3 14//3
f 65//3 63//3 62//3
f 67//3 63//3 64//3
f 14//3 60//3 63//3
f 374//4 371//4 35//4
f 372//4 462//4 35//4
f 463//4 464//4 207//4
f 465//4 39//4 38//4
f 40//4 39//4 465//4
f 202//4 207//4 464//4
f 462//4 37//4 35//4
f 207//4 7//4 450//4
f 451//4 463//4 207//4
f 466//4 450//4 7//4
f 467//4 466//4 7//4
f 468//3 82//3 461//3
f 469//3 82//3 468//3
f 469//3 84//3 82//3
f 470//3 86//3 85//3
f 88//3 86//3 470//3
f 16//3 97//3 82//3
f 471//3 86//3 87//3
f 472//3 89//3 86//3
f 471//3 472//3 86//3
f 82//3 81//3 86//3
f 136//4 152//4 447//4
f 203//4 202//4 464//4
f 401//4 41//4 40//4
f 226//4 214//4 117//4
f 41//4 401//4 47//4
f 167//4 203//4 464//4
f 464//4 473//4 167//4
f 140//4 167//4 473//4
f 473//4 407//4 140//4
f 440//4 447//4 152//4
f 474//3 475//3 476//3
f 169//4 187//4 273//4
f 105//4 104//4 288//4
f 477//3 475//3 478//3
f 478//3 475//3 479//3
f 170//4 273//4 171//4
f 480//3 481//3 137//3
f 477//3 482//3 475//3
f 174//4 273//4 175//4
f 175//4 210//4 239//4
f 483//3 484//3 137//3
f 481//3 483//3 137//3
f 178//4 239//4 210//4
f 179//4 178//4 210//4
f 292//4 179//4 210//4
f 292//4 210//4 182//4
f 161//3 287//3 485//3
f 180//4 182//4 210//4
f 184//4 180//4 210//4
f 210//4 207//4 165//4
f 164//4 210//4 165//4
f 210//4 175//4 273//4
f 486//3 126//3 487//3
f 189//4 165//4 207//4
f 195//4 192//4 207//4
f 191//4 189//4 207//4
f 65//47 62//47 102//47
f 192//4 191//4 207//4
f 488//3 489//3 490//3
f 491//3 492//3 489//3
f 493//3 489//3 488//3
f 489//3 492//3 494//3
f 495//3 475//3 493//3
f 197//4 207//4 198//4
f 496//3 475//3 495//3
f 200//4 198//4 207//4
f 497//3 475//3 496//3
f 202//4 200//4 207//4
f 498//3 475//3 497//3
f 157//3 159//3 499//3
f 256//33 68//33 70//33
f 419//4 416//4 415//4
f 413//4 415//4 414//4
f 428//4 467//4 7//4
f 38//4 37//4 462//4
f 427//4 6//4 425//4
f 155//3 157//3 500//3
f 69//34 68//34 256//34
f 153//3 155//3 500//3
f 169//4 273//4 170//4
f 171//4 273//4 174//4
f 124//3 153//3 500//3
f 35//4 34//4 6//4
f 6//4 427//4 7//4
f 501//3 124//3 500//3
f 502//3 124//3 501//3
f 503//3 126//3 502//3
f 164//4 184//4 210//4
f 197//4 195//4 207//4
f 35//4 209//4 379//4
f 387//4 386//4 209//4
f 415//4 413//4 209//4
f 489//50 475//50 277//50
f 273//50 277//50 475//50
f 273//50 504//50 210//50
f 247//1 55//1 377//1
f 55//19 247//19 248//19
f 55//19 248//19 63//19
f 216//3 126//3 217//3
f 219//3 126//3 216//3
f 505//3 126//3 219//3
f 91//19 14//19 415//19
f 91//19 415//19 209//19
f 506//3 126//3 503//3
f 507//3 126//3 506//3
f 508//3 126//3 509//3
f 507//3 509//3 126//3
f 510//3 126//3 508//3
f 510//3 217//3 126//3
f 124//3 502//3 126//3
f 323//55 321//55 317//55
f 323//55 317//55 390//55
f 361//56 391//56 390//56
f 361//56 390//56 317//56
f 126//3 505//3 511//3
f 511//3 487//3 126//3
f 512//3 489//3 486//3
f 513//3 489//3 512//3
f 491//3 489//3 513//3
f 490//3 489//3 494//3
f 85//52 371//52 374//52
f 407//57 392//57 391//57
f 407//57 391//57 361//57
f 126//3 486//3 489//3
f 489//3 493//3 475//3
f 476//3 475//3 498//3
f 474//3 479//3 475//3
f 473//58 300//58 392//58
f 473//58 392//58 407//58
f 464//59 299//59 300//59
f 464//59 300//59 473//59
f 375//5 87//5 88//5
f 463//60 393//60 299//60
f 463//60 299//60 464//60
f 173//3 504//3 172//3
f 451//61 303//61 393//61
f 451//61 393//61 463//61
f 471//54 87//54 375//54
f 238//3 504//3 284//3
f 284//3 504//3 173//3
f 450//62 302//62 303//62
f 450//62 303//62 451//62
f 466//63 306//63 302//63
f 466//63 302//63 450//63
f 467//64 307//64 306//64
f 467//64 306//64 466//64
f 291//3 289//3 290//3
f 177//3 289//3 238//3
f 297//3 181//3 289//3
f 290//3 289//3 177//3
f 181//3 183//3 289//3
f 379//10 384//10 89//10
f 90//10 89//10 384//10
f 370//65 409//65 410//65
f 183//3 241//3 289//3
f 412//66 311//66 370//66
f 412//66 370//66 410//66
f 383//11 93//11 384//11
f 492//8 309//8 308//8
f 349//67 312//67 311//67
f 349//67 311//67 412//67
f 417//68 315//68 312//68
f 417//68 312//68 349//68
f 418//69 313//69 315//69
f 418//69 315//69 417//69
f 421//70 381//70 313//70
f 421//70 313//70 418//70
f 422//71 382//71 381//71
f 422//71 381//71 421//71
f 348//72 385//72 382//72
f 348//72 382//72 422//72
f 331//73 319//73 385//73
f 331//73 385//73 348//73
f 324//74 320//74 319//74
f 324//74 319//74 331//74
f 129//3 475//3 147//3
f 320//75 324//75 321//75
f 320//75 321//75 323//75
f 131//3 504//3 129//3
f 149//3 504//3 131//3
f 147//3 475//3 148//3
f 307//76 467//76 328//76
f 428//76 328//76 467//76
f 185//3 504//3 149//3
f 328//77 428//77 427//77
f 328//77 427//77 329//77
f 10//14 118//14 43//14
f 186//3 504//3 185//3
f 188//3 504//3 186//3
f 425//78 395//78 329//78
f 425//78 329//78 427//78
f 10//8 43//8 24//8
f 426//79 396//79 395//79
f 426//79 395//79 425//79
f 433//80 337//80 396//80
f 433//80 396//80 426//80
f 482//3 480//3 137//3
f 33//81 332//81 337//81
f 33//81 337//81 433//81
f 96//30 45//30 397//30
f 115//3 475//3 137//3
f 34//82 333//82 332//82
f 34//82 332//82 33//82
f 36//83 336//83 333//83
f 36//83 333//83 34//83
f 148//3 475//3 103//3
f 176//3 103//3 475//3
f 37//84 338//84 336//84
f 37//84 336//84 36//84
f 39//85 341//85 338//85
f 39//85 338//85 37//85
f 41//86 342//86 341//86
f 41//86 341//86 39//86
f 47//87 343//87 342//87
f 47//87 342//87 41//87
f 49//88 344//88 343//88
f 49//88 343//88 47//88
f 193//3 190//3 124//3
f 199//3 124//3 266//3
f 124//3 190//3 265//3
f 201//3 124//3 199//3
f 204//3 124//3 201//3
f 51//89 345//89 344//89
f 51//89 344//89 49//89
f 205//3 124//3 204//3
f 211//90 356//90 345//90
f 211//90 345//90 51//90
f 196//3 266//3 124//3
f 217//9 340//9 339//9
f 271//91 355//91 356//91
f 271//91 356//91 211//91
f 166//3 124//3 205//3
f 455//22 460//22 402//22
f 222//92 357//92 355//92
f 222//92 355//92 271//92
f 223//93 360//93 357//93
f 223//93 357//93 222//93
f 234//94 359//94 360//94
f 234//94 360//94 223//94
f 233//95 358//95 359//95
f 233//95 359//95 234//95
f 143//3 228//3 514//3
f 228//3 135//3 515//3
f 230//96 364//96 358//96
f 230//96 358//96 233//96
f 232//97 365//97 364//97
f 232//97 364//97 230//97
f 514//3 516//3 143//3
f 231//98 366//98 365//98
f 231//98 365//98 232//98
f 517//3 518//3 255//3
f 518//3 515//3 135//3
f 117//13 118//13 439//13
f 269//99 367//99 366//99
f 269//99 366//99 231//99
f 519//3 517//3 255//3
f 135//3 134//3 518//3
f 268//100 368//100 367//100
f 268//100 367//100 269//100
f 255//3 137//3 519//3
f 134//3 255//3 518//3
f 267//101 369//101 368//101
f 267//101 368//101 268//101
f 139//3 124//3 166//3
f 139//3 153//3 124//3
f 516//3 485//3 143//3
f 287//3 143//3 485//3
f 515//3 514//3 228//3
f 409//102 380//102 369//102
f 409//102 369//102 267//102
f 409//65 370//65 380//65
f 441//46 411//46 444//46
f 413//46 444//46 411//46
f 475//3 482//3 137//3
f 115//3 176//3 475//3
f 484//3 519//3 137//3
f 485//3 520//3 161//3
f 159//3 161//3 520//3
f 520//3 499//3 159//3
f 499//3 521//3 157//3
f 521//3 500//3 157//3
f 414//7 443//7 444//7
f 414//7 444//7 413//7
f 475//3 129//3 504//3
f 168//3 504//3 188//3
f 172//3 504//3 168//3
f 477//52 280//52 281//52
f 443//47 414//47 445//47
f 124//3 289//3 241//3
f 163//3 124//3 241//3
f 194//3 124//3 163//3
f 193//3 124//3 194//3
f 196//3 124//3 265//3
f 291//3 297//3 289//3
f 504//3 238//3 289//3
f 419//48 446//48 445//48
f 504//50 273//50 475//50
f 419//49 448//49 446//49
f 289//50 210//50 504//50
f 16//50 377//50 29//50
f 16//50 82//50 122//50
f 377//50 16//50 122//50
f 86//50 122//50 82//50
f 424//27 456//27 449//27
f 432//28 457//28 424//28
f 456//28 424//28 457//28
f 63//19 248//19 14//19
f 248//19 415//19 14//19
f 457//33 432//33 458//33
f 431//33 458//33 432//33
f 458//34 431//34 453//34
f 44//40 214//40 11//40
f 459//9 452//9 404//9
f 459//51 404//51 460//51
f 495//32 295//32 496//32
f 496//42 298//42 301//42
f 85//52 374//52 470//52
f 470//39 374//39 88//39
f 492//29 308//29 310//29
f 379//41 89//41 472//41
f 310//30 293//30 490//30
f 490//20 293//20 294//20
f 90//11 384//11 93//11
f 514//12 515//12 440//12
f 92//44 93//44 383//44
f 387//12 94//12 92//12
f 94//45 387//45 95//45
f 388//45 95//45 387//45
f 388//17 442//17 95//17
f 499//46 318//46 322//46
f 325//7 521//7 322//7
f 246//24 75//24 133//24
f 58//26 264//26 263//26
f 96//30 397//30 21//30
f 21//20 397//20 97//20
f 48//32 99//32 100//32
f 99//42 48//42 461//42
f 217//51 339//51 215//51
f 403//22 402//22 460//22
f 455//23 402//23 406//23
f 455//23 406//23 454//23
f 454//24 406//24 436//24
f 69//34 256//34 257//34
f 476//37 498//37 275//37
f 436//25 270//25 437//25
f 274//15 474//15 275//15
f 476//15 275//15 474//15
f 437//6 270//6 438//6
f 278//16 479//16 274//16
f 474//16 274//16 479//16
f 278//38 478//38 479//38
f 108//41 9//41 226//41
f 276//43 498//43 301//43
f 482//52 477//52 281//52
f 240//11 111//11 109//11
f 240//44 113//44 111//44
f 482//39 281//39 480//39
f 282//39 480//39 281//39
f 283//5 481//5 480//5
f 283//5 480//5 282//5
f 481//54 283//54 483//54
f 286//54 483//54 283//54
f 483//40 286//40 484//40
f 285//40 484//40 286//40
f 519//41 484//41 288//41
f 285//41 288//41 484//41
f 435//10 517//10 288//10
f 519//10 288//10 517//10
f 434//11 518//11 517//11
f 434//11 517//11 435//11
f 434//44 447//44 518//44
f 515//44 518//44 447//44
f 447//12 440//12 515//12
f 304//24 511//24 224//24
f 354//25 487//25 304//25
f 511//25 304//25 487//25
f 486//6 487//6 353//6
f 354//6 353//6 487//6
f 352//26 512//26 353//26
f 486//26 353//26 512//26
f 513//13 512//13 351//13
f 352//13 351//13 512//13
f 491//14 513//14 309//14
f 351//14 309//14 513//14
f 491//8 309//8 492//8
f 492//29 310//29 494//29
f 26//43 237//43 221//43
f 494//30 310//30 490//30
f 488//20 490//20 294//20
f 28//29 30//29 243//29
f 296//21 493//21 294//21
f 488//21 294//21 493//21
f 295//31 495//31 296//31
f 493//31 296//31 495//31
f 298//32 496//32 295//32
f 496//42 301//42 497//42
f 514//45 440//45 516//45
f 362//45 516//45 440//45
f 362//17 316//17 516//17
f 485//17 516//17 316//17
f 485//18 316//18 520//18
f 318//18 520//18 316//18
f 520//46 318//46 499//46
f 499//7 322//7 521//7
f 75//25 246//25 101//25
f 325//47 327//47 521//47
f 500//47 521//47 327//47
f 500//48 327//48 501//48
f 326//48 501//48 327//48
f 58//13 263//13 261//13
f 326//49 330//49 501//49
f 502//49 501//49 330//49
f 502//36 330//36 503//36
f 363//36 503//36 330//36
f 347//27 506//27 363//27
f 503//27 363//27 506//27
f 60//46 121//46 249//46
f 346//28 507//28 347//28
f 506//28 347//28 507//28
f 249//7 102//7 60//7
f 346//33 334//33 507//33
f 509//33 507//33 334//33
f 335//34 508//34 509//34
f 335//34 509//34 334//34
f 64//48 65//48 251//48
f 335//35 340//35 508//35
f 510//35 508//35 340//35
f 64//49 251//49 252//49
f 217//9 510//9 340//9
f 505//23 219//23 224//23
f 505//24 224//24 511//24
f 314//50 305//50 3//50
f 314//50 3//50 4//50
f 305//1 314//1 125//1
f 126//1 489//1 125//1
f 305//1 125//1 277//1
f 277//1 125//1 489//1
f 23//54 213//54 11//54
f 9//40 11//40 214//40
f 214//41 226//41 9//41
f 108//10 226//10 109//10
f 113//44 112//44 111//44
f 394//12 12//12 113//12
f 394//45 408//45 12//45
f 13//45 12//45 408//45
f 221//37 220//37 26//37
f 80//37 26//37 220//37
f 80//15 220//15 119//15
f 17//16 119//16 272//16
f 15//38 17//38 212//38
f 272//38 212//38 17//38
f 15//53 212//53 52//53
f 15//53 52//53 18//53
f 50//52 19//52 52//52
f 18//52 52//52 19//52
f 46//39 20//39 19//39
f 46//39 19//39 50//39
f 213//5 23//5 46//5
f 44//54 11//54 213//54
f 13//17 408//17 120//17
f 461//42 48//42 401//42
f 61//18 25//18 121//18
f 40//43 468//43 401//43
f 236//42 237//42 53//42
f 27//43 237//43 26//43
f 57//14 261//14 59//14
f 262//8 30//8 260//8
f 59//8 260//8 30//8
f 262//29 243//29 30//29
f 242//30 78//30 243//30
f 28//30 243//30 78//30
f 32//20 78//20 244//20
f 242//20 244//20 78//20
f 411//18 442//18 389//18
f 32//21 244//21 245//21
f 32//21 245//21 31//21
f 235//31 79//31 245//31
f 31//31 245//31 79//31
f 79//32 235//32 53//32
f 236//32 53//32 235//32
f 445//47 414//47 416//47
f 445//48 416//48 419//48
f 27//42 53//42 237//42
f 448//49 419//49 420//49
f 56//51 107//51 258//51
f 449//36 448//36 423//36
f 420//36 423//36 448//36
f 56//22 258//22 132//22
f 449//27 423//27 424//27
f 453//34 431//34 430//34
f 101//25 74//25 75//25
f 453//35 430//35 452//35
f 429//35 452//35 430//35
f 101//6 264//6 77//6
f 452//9 429//9 404//9
f 77//26 264//26 58//26
f 261//13 57//13 58//13
f 468//37 40//37 469//37
f 260//14 59//14 261//14
f 38//15 84//15 465//15
f 469//15 465//15 84//15
f 83//16 84//16 462//16
f 38//16 462//16 84//16
f 372//38 81//38 462//38
f 83//38 462//38 81//38
f 60//46 61//46 121//46
f 85//53 81//53 371//53
f 372//53 371//53 81//53
f 65//47 102//47 250//47
f 88//39 374//39 373//39
f 88//5 373//5 375//5
f 250//48 251//48 65//48
f 471//54 375//54 376//54
f 252//49 67//49 64//49
f 378//40 472//40 376//40
f 67//36 252//36 66//36
f 253//36 66//36 252//36
f 471//40 376//40 472//40
f 66//27 253//27 76//27
f 254//27 76//27 253//27
f 472//41 378//41 379//41
f 259//28 70//28 76//28
f 259//28 76//28 254//28
f 70//33 259//33 256//33
f 92//44 383//44 386//44
f 387//12 92//12 386//12
f 106//35 71//35 69//35
f 257//35 106//35 69//35
f 72//9 71//9 107//9
f 389//17 442//17 388//17
f 411//18 441//18 442//18
f 72//51 107//51 56//51
f 2//19 1//19 229//19
f 2//19 229//19 350//19
f 465//37 469//37 40//37
f 350//1 229//1 377//1
f 229//1 247//1 377//1
f 29//1 377//1 55//1
f 498//37 276//37 275//37
f 43//8 42//8 24//8
f 96//29 24//29 45//29
f 42//29 45//29 24//29
f 279//38 478//38 278//38
f 478//53 279//53 280//53
f 477//53 478//53 280//53
f 97//20 397//20 398//20
f 97//21 398//21 98//21
f 399//21 98//21 398//21
f 497//43 301//43 498//43
f 400//31 100//31 399//31
f 98//31 399//31 100//31
f 100//32 400//32 48//32
f 461//43 401//43 468//43
f 460//51 404//51 403//51
f 436//24 406//24 405//24
f 436//25 405//25 270//25
f 438//6 270//6 227//6
f 225//26 439//26 227//26
f 438//26 227//26 439//26
f 439//13 225//13 117//13
# Vertices: 521, normals: 102, texture coordinates: 0, faces: 1058

